<svg width="162" height="162" viewBox="0 0 162 162" fill="none" xmlns="http://www.w3.org/2000/svg">
<rect width="162" height="162" fill="white"/>
<rect width="162" height="162" rx="24" fill="url(#paint0_linear_112_11)"/>
<path d="M56.0884 60.977C63.9764 60.977 69.7764 62.572 73.4884 65.762C77.2584 68.952 79.1434 73.128 79.1434 78.29C79.1434 80.03 78.9114 81.973 78.4474 84.119C77.3454 88.875 75.2864 93.051 72.2704 96.647C69.2544 100.185 65.5424 102.94 61.1344 104.912C56.7844 106.826 52.0574 107.783 46.9534 107.783C38.8914 107.783 32.9174 106.188 29.0314 102.998C25.2034 99.75 23.2894 95.458 23.2894 90.122C23.2894 88.324 23.5214 86.323 23.9854 84.119C25.0874 79.595 27.1754 75.593 30.2494 72.113C33.3814 68.575 37.1804 65.849 41.6464 63.935C46.1704 61.963 50.9844 60.977 56.0884 60.977ZM55.8274 68.72C54.6094 68.72 53.3044 69.822 51.9124 72.026C50.5784 74.172 48.9834 78.261 47.1274 84.293C45.2714 90.325 44.3434 94.559 44.3434 96.995C44.3434 98.271 44.5464 99.141 44.9524 99.605C45.3584 100.011 45.9094 100.214 46.6054 100.214C47.8234 100.33 49.0704 99.286 50.3464 97.082C51.6804 94.878 53.3334 90.586 55.3054 84.206C57.1034 78.58 58.0024 74.491 58.0024 71.939C58.0024 70.721 57.7994 69.88 57.3934 69.416C57.0454 68.952 56.5234 68.72 55.8274 68.72ZM131.145 94.994C131.029 95.226 130.971 95.574 130.971 96.038C130.971 96.444 131.058 96.763 131.232 96.995C131.464 97.227 131.754 97.343 132.102 97.343C132.798 97.343 133.378 97.053 133.842 96.473C134.364 95.835 134.712 95.516 134.886 95.516C135.176 95.516 135.408 95.719 135.582 96.125C135.756 96.473 135.843 96.908 135.843 97.43C135.901 99.112 135.35 100.765 134.19 102.389C133.03 103.955 131.319 105.26 129.057 106.304C126.853 107.29 124.185 107.783 121.053 107.783C117.225 107.783 114.18 106.913 111.918 105.173C109.656 103.375 108.496 100.997 108.438 98.039C108.438 95.893 108.96 93.486 110.004 90.818L114.789 78.29C115.079 77.536 115.224 76.927 115.224 76.463C115.224 75.709 114.963 75.129 114.441 74.723C113.977 74.259 113.397 74.027 112.701 74.027C111.599 74.027 110.468 74.549 109.308 75.593C108.206 76.579 107.307 78.203 106.611 80.465V80.291L101.13 97.952C100.956 98.648 100.869 99.257 100.869 99.779C100.869 100.533 101.014 101.142 101.304 101.606C101.594 102.012 102 102.418 102.522 102.824C102.928 103.23 103.218 103.578 103.392 103.868C103.566 104.1 103.595 104.419 103.479 104.825C103.189 105.579 102.609 106.13 101.739 106.478C100.869 106.826 99.535 107 97.737 107H77.901C76.393 107 75.291 106.768 74.595 106.304C73.899 105.782 73.667 105.115 73.899 104.303C74.131 103.607 74.74 102.998 75.726 102.476C76.596 102.012 77.321 101.461 77.901 100.823C78.481 100.185 78.974 99.17 79.38 97.778L92.604 54.365C92.778 53.843 92.865 53.408 92.865 53.06C92.865 52.422 92.691 51.9 92.343 51.494C92.053 51.088 91.647 50.682 91.125 50.276C90.545 49.812 90.11 49.406 89.82 49.058C89.588 48.71 89.559 48.246 89.733 47.666C90.081 46.332 91.908 45.172 95.214 44.186C98.52 43.2 101.971 42.707 105.567 42.707C108.931 42.707 111.396 43.345 112.962 44.621C114.586 45.897 115.398 47.637 115.398 49.841C115.398 51.117 115.195 52.364 114.789 53.582L110.091 68.894C112.353 65.936 114.731 63.877 117.225 62.717C119.777 61.557 122.532 60.977 125.49 60.977C129.028 60.977 131.87 62.05 134.016 64.196C136.22 66.342 137.322 69.126 137.322 72.548C137.322 74.346 137.032 76.115 136.452 77.855L131.145 94.994Z" fill="white"/>
<defs>
<linearGradient id="paint0_linear_112_11" x1="81" y1="0" x2="81" y2="162" gradientUnits="userSpaceOnUse">
<stop stop-color="#FF6DD3"/>
<stop offset="1" stop-color="#8A4BD2"/>
</linearGradient>
</defs>
</svg>
